<?xml version="1.0" standalone="no"?>
<!DOCTYPE svg PUBLIC "-//W3C//DTD SVG 20010904//EN"
 "http://www.w3.org/TR/2001/REC-SVG-20010904/DTD/svg10.dtd">
<svg version="1.0" xmlns="http://www.w3.org/2000/svg"
 width="669.000000pt" height="373.000000pt" viewBox="0 0 669.000000 373.000000"
 preserveAspectRatio="xMidYMid meet">
<metadata>
Created by potrace 1.10, written by Peter Selinger 2001-2011
</metadata>
<g transform="translate(0.000000,373.000000) scale(0.050000,-0.050000)"
fill="#000000" stroke="none">
<path d="M6540 5750 c0 -14 14 -36 30 -50 17 -14 27 -30 21 -35 -5 -5 4 -23
20 -39 16 -16 24 -37 18 -48 -6 -10 -3 -18 6 -18 10 0 52 -65 94 -145 42 -80
98 -182 124 -227 26 -45 41 -87 34 -95 -8 -7 -4 -13 8 -13 91 0 64 -130 -52
-249 -65 -66 -184 -193 -265 -281 -80 -88 -203 -218 -273 -290 l-126 -130 275
-6 276 -6 105 116 c58 64 148 162 200 218 52 57 97 110 99 120 1 9 12 20 24
24 24 8 186 -305 168 -324 -7 -6 -2 -12 10 -12 13 0 30 -29 40 -65 l16 -65
264 -6 c226 -4 264 -1 264 25 0 17 -7 31 -16 31 -8 0 -31 27 -51 60 -19 33
-30 60 -24 60 6 0 -7 18 -30 41 -22 22 -46 67 -52 100 -7 32 -19 59 -28 59 -8
0 -53 74 -100 165 -47 91 -97 183 -112 204 -42 62 -36 75 108 231 74 81 193
211 263 289 71 77 176 189 235 248 142 141 145 138 -152 135 l-259 -2 -101
-109 c-56 -60 -101 -114 -102 -120 -2 -20 -217 -249 -226 -240 -29 31 -149
296 -139 307 7 6 4 12 -8 12 -11 0 -36 35 -55 78 l-35 78 -248 0 c-186 -1
-248 -7 -248 -26z m351 -89 c-6 -10 9 -21 33 -25 25 -3 56 -27 69 -54 13 -26
34 -54 46 -61 12 -8 24 -41 27 -73 3 -38 22 -69 57 -92 29 -18 59 -51 66 -73
19 -59 187 -71 195 -13 3 22 20 41 36 43 65 6 69 8 40 27 -24 16 -21 19 15 20
25 0 45 12 45 28 0 16 7 32 16 35 8 4 46 45 83 92 37 47 80 85 96 85 15 0 23
8 17 17 -6 9 14 18 44 20 30 2 71 5 92 8 21 3 42 -8 47 -23 6 -15 1 -22 -10
-15 -11 7 -19 -3 -18 -22 2 -19 -8 -33 -21 -30 -14 2 -20 -13 -16 -37 6 -29 0
-38 -19 -31 -28 11 -79 -32 -61 -51 6 -5 -15 -32 -45 -60 -72 -66 -124 -131
-113 -141 4 -5 -14 -20 -40 -34 -26 -14 -57 -47 -69 -73 -12 -26 -32 -48 -44
-48 -12 0 -16 -9 -9 -20 7 -11 5 -20 -4 -20 -49 -1 -76 -132 -36 -173 36 -36
40 -75 5 -55 -14 8 -3 -10 23 -39 27 -29 41 -53 30 -53 -10 0 -7 -8 8 -17 14
-9 29 -42 33 -74 11 -87 33 -130 56 -116 14 9 17 1 9 -20 -8 -21 -3 -33 14
-33 23 0 52 -39 61 -80 1 -5 9 -21 17 -35 9 -14 11 -34 4 -45 -7 -11 0 -15 16
-9 16 6 27 -2 27 -19 0 -17 -7 -26 -15 -21 -8 5 -21 1 -28 -11 -19 -30 -89
-24 -124 11 -25 25 -36 26 -62 5 -26 -21 -29 -21 -16 0 9 15 0 49 -21 80 -20
30 -34 60 -32 68 3 8 -10 9 -29 2 -22 -9 -28 -5 -18 11 8 13 -4 47 -27 76 -22
29 -41 65 -41 80 0 15 -11 25 -25 22 -14 -3 -23 6 -20 20 3 14 -11 25 -31 25
-20 0 -47 11 -60 24 -14 14 -24 16 -24 3 0 -11 -20 -19 -45 -19 -25 1 -43 -7
-41 -19 2 -12 -14 -32 -35 -45 -26 -16 -39 -17 -39 -3 0 36 -62 -37 -70 -83
-11 -57 -70 -121 -96 -104 -11 7 -14 2 -6 -11 8 -13 6 -23 -4 -23 -11 0 -25
-20 -32 -45 -9 -34 -16 -38 -29 -18 -13 20 -20 15 -29 -19 -7 -26 -18 -40 -26
-33 -7 8 -30 5 -50 -6 -48 -26 -138 -3 -138 35 0 16 18 34 40 40 22 6 40 25
40 43 1 37 147 203 179 203 12 0 21 14 21 31 0 16 13 35 29 41 16 7 47 42 69
80 23 37 55 68 73 68 17 0 26 9 19 20 -7 11 13 44 44 73 31 30 46 48 33 40
-16 -9 -22 11 -20 65 2 43 8 75 14 71 6 -3 10 10 10 30 0 21 -10 32 -24 27
-15 -6 -31 13 -39 47 -8 30 -31 73 -51 95 -20 22 -37 55 -37 73 0 19 -13 45
-29 58 -16 13 -24 37 -17 53 6 17 -9 51 -34 78 -24 26 -39 56 -32 67 7 11 1
24 -13 30 -19 8 -18 15 4 30 21 14 39 13 59 -3 22 -17 26 -18 16 -1 -8 13 -3
28 11 34 37 15 38 15 26 -6z"/>
<path d="M740 5009 l0 -389 80 0 80 0 -13 111 -13 110 108 0 c197 0 258 17
343 96 127 117 33 423 -130 423 -19 0 -35 7 -35 16 0 9 -94 18 -210 20 l-210
3 0 -390z m470 211 c18 -15 27 -38 22 -53 -6 -14 -1 -31 10 -38 13 -8 13 -21
-1 -38 -11 -13 -15 -30 -8 -37 38 -39 -88 -93 -218 -93 l-135 -1 0 149 0 149
149 -6 c85 -4 164 -18 181 -32z"/>
<path d="M1731 5347 c-6 -26 -21 -47 -33 -47 -11 0 -15 -9 -8 -19 6 -11 -6
-54 -27 -95 -21 -42 -40 -83 -41 -91 -2 -8 -52 -118 -111 -245 l-109 -230 71
0 c64 0 138 42 115 65 -5 5 1 33 14 62 24 52 28 53 217 53 l192 0 30 -85 c24
-70 39 -86 86 -91 74 -9 132 12 96 34 -14 9 -28 29 -30 44 -3 15 -20 57 -39
92 -19 35 -34 78 -34 95 0 17 -7 31 -16 31 -16 0 -71 120 -66 146 1 8 -20 49
-48 89 -27 41 -50 92 -51 115 -2 113 -182 180 -208 77z m126 -178 c13 -29 18
-60 12 -70 -6 -11 -2 -19 8 -19 18 0 49 -63 52 -103 1 -8 8 -20 16 -29 32 -32
10 -38 -125 -38 -77 0 -140 6 -140 14 0 29 47 116 63 116 9 0 17 23 17 50 0
108 61 158 97 79z"/>
<path d="M2357 5386 c-8 -43 -10 -719 -2 -741 5 -14 40 -25 79 -25 l69 0 -3
245 c-2 135 -2 252 -2 261 1 9 49 -45 106 -120 57 -75 113 -146 125 -158 21
-23 123 -150 162 -203 12 -16 45 -26 76 -22 l55 7 0 365 c-1 201 -1 375 -2
386 0 12 -29 19 -65 15 l-65 -6 3 -255 c3 -263 -7 -294 -67 -200 -20 30 -45
65 -56 77 -77 85 -130 149 -130 158 0 79 -270 286 -283 216z"/>
<path d="M3419 5347 c-36 -25 -75 -40 -87 -33 -12 7 -15 5 -7 -4 9 -10 -9 -43
-38 -74 -57 -58 -65 -87 -69 -236 -1 -76 7 -115 48 -219 57 -144 394 -211 576
-114 l88 46 0 149 0 148 -75 0 -75 1 0 -124 c0 -140 -8 -147 -159 -147 -188 0
-283 124 -252 330 25 168 256 250 413 147 47 -30 52 -30 100 11 l51 44 -45 34
c-128 96 -358 116 -469 41z"/>
<path d="M4366 5375 c-11 -14 -40 -70 -64 -125 -25 -55 -64 -140 -88 -190 -24
-49 -41 -97 -38 -105 2 -8 -5 -15 -16 -15 -11 0 -18 -7 -16 -15 7 -26 -26
-105 -43 -105 -9 0 -22 -31 -30 -70 -7 -38 -21 -70 -32 -70 -10 0 -19 -13 -19
-30 0 -53 154 -40 173 15 19 56 21 67 25 106 2 36 411 35 413 -1 0 -11 12 -40
25 -65 14 -25 18 -45 10 -45 -49 -1 55 -39 107 -40 70 0 75 23 25 102 -27 42
-60 116 -141 312 -13 31 -25 61 -27 66 -84 241 -198 360 -264 275z m82 -178
c2 -15 29 -74 58 -131 81 -158 56 -176 -213 -148 -9 1 8 45 37 97 30 52 58
117 63 144 16 84 43 103 55 38z"/>
<path d="M4957 5373 c-4 -12 -4 -187 -1 -388 l7 -365 290 0 290 0 -7 55 -6 55
-210 6 -211 5 1 110 0 110 186 -7 186 -8 -6 62 -6 62 -180 -5 -180 -4 -1 98
-2 98 207 -6 206 -6 0 74 0 74 -278 2 c-197 1 -281 -5 -285 -22z"/>
<path d="M5940 5361 c0 -21 -11 -50 -25 -65 -14 -15 -27 -37 -29 -49 -7 -38
-230 -536 -248 -556 -41 -44 -17 -71 62 -71 44 0 78 7 76 15 -2 8 7 49 22 91
l26 75 200 -5 200 -6 26 -76 c34 -98 33 -98 118 -90 71 6 72 6 43 61 -16 30
-23 55 -17 55 7 0 -3 17 -22 38 -19 21 -37 51 -40 65 -2 15 -19 55 -37 89 -19
35 -28 69 -21 75 7 7 3 13 -8 13 -18 0 -31 25 -54 100 -1 6 -10 21 -18 35 -9
14 -11 25 -4 25 7 0 -1 14 -19 31 -17 18 -37 56 -44 85 -25 106 -187 162 -187
65z m126 -231 c2 -11 9 -24 14 -30 14 -14 80 -159 80 -176 0 -8 -63 -15 -140
-16 -77 -1 -140 1 -140 4 0 4 23 59 52 122 28 64 61 139 72 166 l20 50 19 -50
c11 -27 21 -59 23 -70z"/>
</g>
</svg>
